<?xml version="1.0" encoding="utf-8"?>
<!-- Generator: Adobe Illustrator 22.1.0, SVG Export Plug-In . SVG Version: 6.00 Build 0)  -->
<svg version="1.1" id="Layer_1" xmlns="http://www.w3.org/2000/svg" xmlns:xlink="http://www.w3.org/1999/xlink" x="0px" y="0px"
	 viewBox="0 0 250 250" style="enable-background:new 0 0 250 250;" xml:space="preserve">
<style type="text/css">
	.st0{fill:#FFFFFF;}
</style>
<g id="bead-logo">
	<g id="shape">
		<path class="st0" d="M89.4,118.4c0-2.8-1.9-3-3.9-3h-1.6v6.1h1.6C87.5,121.5,89.4,121.3,89.4,118.4z"/>
		<polygon class="st0" points="135.7,117.4 133.6,127.4 138.3,127.4 136,117.4 		"/>
		<path class="st0" d="M160.2,115.7v18.7h2.5c3,0,4.3-2.8,4.3-9.1c0-6.3-1.3-9.6-4.3-9.6L160.2,115.7z"/>
		<path class="st0" d="M85.9,128.3h-1.9v6.2h1.9c2.1,0,4.1-0.2,4.1-3.2C89.9,128.5,88,128.3,85.9,128.3z"/>
		<path class="st0" d="M125,0L0,125l125,125l125-125L125,0z M197,86.3v9.3l-2.3-2.3l-10.4,10.4v-4.7h-4.7L190,88.7l-2.3-2.3H197z
			 M184,73.3l-16.4,16.4h9.3l-9.3,9.3h-18.7l0-18.7l9.3-9.3v9.3L174.7,64v9.3L184,73.3z M175.2,125.1c0,7.8-1.7,16.2-12.6,16.2H152
			v-32.6h10.7C173.5,108.7,175.2,117.3,175.2,125.1L175.2,125.1z M122.7,21.4v-4.7l38.7,38.7l2.3-2.3v9.3h-9.3l2.3-2.3L118,21.4
			H122.7z M83.8,99.1l3.3-3.3l-3.3-3.3h50.8v-3.3l6.6,6.6l-6.6,6.6v-3.3H83.8z M108.6,157.5l3.3-3.3l-3.3-3.3h19.1v-3.3l6.6,6.6
			l-6.6,6.6v-3.3L108.6,157.5z M119.6,115.7h-9.8v5.9h6.7v6.8h-6.7v6h9.8v7h-18v-32.6h18L119.6,115.7z M98.1,132.9
			c0,4.2-2.2,8.4-11.7,8.4H75.7v-32.6h10.8c9.5,0,11.1,5.5,11.1,8.9c0,1.4-0.5,6.1-3.7,7.8v0.5C97.2,127.2,98.1,130.5,98.1,132.9z
			 M125.7,74.1l-3.3,3.3l3.3,3.3h-19.9V84l-6.6-6.6l6.6-6.6v3.3L125.7,74.1z M137.9,77.4l-3.3,3.3V60.8h-3.3l6.6-6.6l6.6,6.6h-3.3
			v19.9L137.9,77.4z M94.6,44.8l9.3-9.3h18.7l0,18.7l-9.3,9.3v-9.3l-45,45l0-9.3h-9.3l45-45L94.6,44.8z M55.8,125l6.6-6.6L69,125
			h-3.3v16.3l-3.3-3.3l-3.3,3.3V125H55.8z M47.6,96.5v-4.7l12.5,12.5l2.3-2.3v9.3h-9.3l2.3-2.3L43,96.5L47.6,96.5z M50.7,134.9
			l-13.2,13.2l-13.2-13.2v-13.2l6.6,6.6v-19.8l6.6,6.6l6.6-6.6v19.8l6.6-6.6L50.7,134.9z M53,163.6v-9.3l2.3,2.3l10.4-10.4v4.7h4.7
			L60,161.3l2.3,2.3L53,163.6z M66.4,177.1l16.8-16.8l-9.3,0l9.3-9.3h18.7l0,18.7l-9.3,9.3v-9.3l-16.8,16.8l0-9.3L66.4,177.1z
			 M90,200.7v-9.3l2.3,2.3l12.6-12.6v4.7h4.7L97,198.4l2.3,2.3L90,200.7z M134.3,226.3h-18.7l-9.3-9.3h9.3L104,205.3h9.3v-9.3
			l11.7,11.7v-9.3l9.3,9.3L134.3,226.3z M134.4,188v4.7l-18.5-18.5l-2.3,2.3v-9.3h9.3l-2.3,2.3L139,188L134.4,188z M139.5,134.2
			h-7.5l-1.6,7.1h-7.9l7.2-32.6h12.1l7.2,32.6h-7.9L139.5,134.2z M159.9,200.7l-2.3-2.3l-11.7,11.7v-4.7h-4.7l11.7-11.7l-2.3-2.3
			h9.3L159.9,200.7z M171,180.3v9.3l-20.1-20.1v9.3l-9.3-9.3v-18.7h18.7l9.3,9.3l-9.3,0l20.1,20.1L171,180.3z M204.1,156.6
			l-13.2,13.2l-13.2-13.2v-13.2l6.6,6.6v-37.7l6.6,6.6l6.6-6.6V150l6.6-6.6V156.6z M203.3,105.9l6.6-6.6l6.6,6.6h-3.3v17.5l-3.3-3.3
			l-3.3,3.3v-17.5L203.3,105.9z M228.6,127.3l-15.1,15.1v-4.7h-4.7l15.1-15.1l-2.3-2.3h9.3v9.3L228.6,127.3z"/>
	</g>
</g>
</svg>
